<svg width="23" height="16" viewBox="0 0 23 16" fill="none" xmlns="http://www.w3.org/2000/svg">
<path d="M22.6364 11.6719C22.6364 13.8206 21.4434 15.5625 19.0994 15.5625H3.53693C1.19301 15.5625 0 13.8206 0 11.6719V3.89062C0 1.74194 1.19301 0 3.53693 0H19.0994C21.4434 0 22.6364 1.74194 22.6364 3.89062V11.6719Z" fill="#EC1C24"/>
<path fill-rule="evenodd" clip-rule="evenodd" d="M14.069 10.0166C13.2548 11.2867 11.5595 12.0878 9.78575 11.5696C8.11172 11.0794 6.96186 9.45738 7.05701 7.70801C7.14968 5.95087 8.46966 4.45651 10.1851 4.1534C12.0027 3.83048 13.4627 4.8049 14.0863 5.82495C13.3474 5.09847 12.4883 4.7713 11.4824 4.88625C10.6944 4.9768 10.0358 5.33297 9.52013 5.93424C8.51069 7.10921 8.54783 8.87131 9.60183 9.98014C10.2063 10.6161 10.9498 10.9489 11.8273 10.957C12.7041 10.9634 13.4479 10.6316 14.0711 10.0183" fill="white"/>
<path d="M15.6441 6.50653L16.3621 7.17289L17.3199 6.96067L16.9071 7.85198L17.4055 8.69412L16.4328 8.57705L15.7824 9.31273L15.5946 8.34998L14.6934 7.9595L15.55 7.48414L15.6441 6.50653Z" fill="white"/>
</svg>
